<svg xmlns="http://www.w3.org/2000/svg" viewBox="0 0 629 196" width="629" height="196"><defs><clipPath clipPathUnits="userSpaceOnUse" id="cp1"><path d="m-175-295h1684v1191h-1684z"></path></clipPath><clipPath clipPathUnits="userSpaceOnUse" id="cp2"><path d="m27.87 102.51q-0.83-0.86-1.76-1.79-0.88-0.97-1.67-2.06c-0.5-0.76-0.94-1.52-1.23-2.31q-0.48-1.23-0.47-2.59-0.01-2.5 1.52-4.51c1.06-1.32 2.32-2.76 3.79-4.23l26.98-26.78q1.97-1.95 4.08-3.55 2.11-1.58 4.69-1.58 1.72 0.01 3.52 0.94 1.81 0.96 3.88 3.02 1.98 1.95 2.78 3.64 0.83 1.66 0.82 3.37 0 2.59-1.49 4.78c-1 1.44-2.17 2.85-3.49 4.14l-21.15 20.94 20.97 20.59c1.38 1.35 2.58 2.76 3.61 4.14q1.55 2.1 1.55 4.6 0 1.72-0.85 3.52-0.87 1.78-3.11 4.02-1.97 1.99-3.63 2.79-1.68 0.82-3.41 0.82-2.5-0.01-4.69-1.56c-1.44-1.02-2.87-2.23-4.25-3.58z"></path></clipPath><clipPath clipPathUnits="userSpaceOnUse" id="cp3"><path d="m137.19 59.45q2.14 0 4.37 0.26c1.5 0.18 2.82 0.59 3.99 1.29 1.2 0.67 2.14 1.73 2.91 3.17q1.1 2.15 1.11 5.92-0.01 3.52-1.11 5.55c-0.77 1.32-1.71 2.37-2.91 3.08q-1.75 1.06-3.99 1.38-2.22 0.3-4.37 0.29h-5.16v45.52q0.01 3.79-0.38 7.28-0.39 3.47-1.79 6.16c-0.97 1.81-2.32 3.25-4.14 4.34q-2.67 1.63-7.24 1.64-4.35-0.01-6.89-1.64-2.53-1.63-3.82-4.34-1.29-2.69-1.61-6.16-0.35-3.49-0.35-7.28v-45.52h-4.84q-2.39 0-4.61-0.29-2.2-0.32-3.87-1.38c-1.11-0.71-2.02-1.76-2.73-3.08q-1.02-2.03-1.02-5.55 0-3.77 1.02-5.92 1.06-2.16 2.73-3.17 1.67-1.04 3.87-1.29 2.22-0.26 4.61-0.26h4.84c0-5.08 0.23-9.71 0.67-13.97q0.71-6.38 3.35-10.91 2.66-4.53 7.89-7.07 5.24-2.55 14.31-2.55 3.87 0.01 7.3 0.68 3.43 0.71 6.02 2.17c1.73 0.96 3.08 2.26 4.07 3.81q1.51 2.38 1.53 5.72c0 2.08-0.38 3.78-1.09 5.16q-1.06 2.06-2.61 3.37-1.56 1.3-3.4 1.79-1.85 0.53-3.4 0.53-1.29 0-2.41-0.61c-0.73-0.38-1.61-0.59-2.58-0.59q-1.19 0-1.85 0.79-0.62 0.76-1.02 2.05c-0.27 0.88-0.41 1.82-0.47 2.88q-0.09 1.55-0.09 3.11l0.03 3.64z"></path></clipPath><clipPath clipPathUnits="userSpaceOnUse" id="cp4"><path d="m159.87 91.74q-0.01-7.91 2.14-13.4 2.15-5.51 5.57-9.21 3.39-3.69 7.57-5.75 4.17-2.07 8.21-3.08c2.7-0.71 5.22-1.12 7.54-1.29q3.49-0.27 5.48-0.27 1.98 0 5.4 0.27c2.32 0.17 4.75 0.58 7.36 1.29q3.92 1.01 7.92 3.08c2.67 1.37 5.11 3.28 7.25 5.75 2.14 2.46 3.93 5.54 5.31 9.21q2.06 5.49 2.05 13.4v21.29q0.01 7.92-2.05 13.41c-1.38 3.67-3.17 6.75-5.31 9.21-2.14 2.46-4.58 4.37-7.25 5.75q-4 2.07-7.92 3.08c-2.61 0.7-5.04 1.11-7.36 1.29q-3.42 0.26-5.4 0.26-1.99 0-5.48-0.26c-2.32-0.18-4.84-0.59-7.54-1.29q-4.04-1.01-8.21-3.08-4.18-2.06-7.57-5.75-3.42-3.7-5.57-9.21-2.15-5.49-2.14-13.41zm26.39 27.22q0.09 2.51 1.24 4.4c0.64 1.15 1.61 2.15 2.96 3.05q2.06 1.32 5.84 1.32 3.6 0 5.57-1.32c1.29-0.9 2.23-1.9 2.87-3.05q1.06-1.89 1.23-4.4v-31.06q-0.17-2.58-1.23-4.72c-0.64-1.14-1.58-2.23-2.87-3.23q-1.97-1.49-5.57-1.49-3.78 0-5.84 1.49c-1.35 1-2.32 2.09-2.96 3.23q-1.15 2.14-1.24 4.72z"></path></clipPath><clipPath clipPathUnits="userSpaceOnUse" id="cp5"><path d="m321.13 125.74q0 3.69-0.44 7.21c-0.26 2.35-0.88 4.46-1.82 6.28-0.97 1.85-2.29 3.31-4.04 4.43q-2.62 1.67-7.07 1.67-4.36 0-6.96-1.67-2.56-1.69-3.93-4.43-1.36-2.77-1.76-6.28-0.38-3.52-0.38-7.21v-33.5q0.01-2.42-0.2-4.75c-0.15-1.53-0.5-2.91-1-4.08q-0.79-1.76-2.29-2.82-1.52-1.09-4.1-1.08c-2.38 0-4.26 0.76-5.72 2.32q-2.15 2.32-3.41 6.36-1.23 4.05-1.67 9.5-0.44 5.46-0.44 11.71v16.34q0 3.69-0.44 7.21-0.4 3.51-1.82 6.28c-0.97 1.82-2.28 3.31-4.04 4.43q-2.62 1.67-7.07 1.67-4.36 0-6.96-1.67-2.55-1.67-3.93-4.43-1.36-2.74-1.76-6.28-0.38-3.52-0.38-7.21v-46.88q0-3.7 0.27-7.18 0.25-3.47 1.52-6.19 1.32-2.69 3.9-4.37 2.64-1.67 7.34-1.67 4.71 0 7.36 1.58c1.79 1.06 3.11 2.35 3.99 3.81q1.36 2.23 1.67 4.73 0.35 2.47 0.35 4.28c0.47-1.64 1.18-3.35 2.17-5.05 0.97-1.73 2.23-3.25 3.76-4.63q2.27-2.06 5.48-3.4 3.18-1.32 7.42-1.32 4.71 0 9.42 1.55c3.17 1.03 5.98 2.73 8.5 5.13q3.75 3.63 6.14 9.45 2.33 5.85 2.34 14.43z"></path></clipPath><clipPath clipPathUnits="userSpaceOnUse" id="cp6"><path d="m409.36 125.88q0 3.64-0.26 7.1-0.26 3.48-1.53 6.25c-0.88 1.82-2.14 3.31-3.87 4.43q-2.56 1.67-7.19 1.67-4.71 0-7.36-1.58-2.68-1.59-3.96-3.88-1.27-2.24-1.58-4.75-0.3-2.47-0.3-4.19-0.79 2.48-2.2 5.04c-0.93 1.73-2.17 3.26-3.66 4.64-1.5 1.38-3.32 2.49-5.4 3.4q-3.17 1.32-7.39 1.32-4.71-0.01-9.42-1.56-4.73-1.52-8.5-5.13-3.75-3.61-6.13-9.41c-1.56-3.88-2.35-8.63-2.35-14.32v-24.9q0.01-8.57 2.35-14.37 2.38-5.8 6.13-9.36 3.77-3.56 8.5-5.1 4.71-1.55 9.42-1.56 4.22 0.01 7.39 1.29 3.14 1.28 5.4 3.35c1.49 1.37 2.73 2.9 3.66 4.63q1.41 2.57 2.2 5.13v-29.45q0-3.7 0.39-7.27c0.26-2.38 0.82-4.46 1.73-6.28q1.32-2.72 3.93-4.4 2.61-1.67 7.15-1.67 4.27 0 6.87 1.67 2.55 1.68 3.87 4.4c0.91 1.79 1.47 3.9 1.73 6.28q0.39 3.56 0.38 7.24zm-44.7-13.17q0 2.32 0.18 4.55 0.18 2.24 0.93 4.05 0.8 1.81 2.29 2.87c1.03 0.74 2.41 1.09 4.2 1.09q3.38 0 5.48-1.5c1.41-1.02 2.52-2.55 3.32-4.66q1.22-3.13 1.7-7.89c0.32-3.2 0.5-6.98 0.55-11.41 0-1.79-0.14-3.81-0.46-6.16-0.33-2.32-0.88-4.49-1.71-6.57q-1.18-3.09-3.34-5.25-2.16-2.15-5.54-2.14c-1.79 0-3.17 0.35-4.2 1.08q-1.49 1.07-2.29 2.79c-0.49 1.14-0.82 2.46-0.93 3.9q-0.18 2.21-0.18 4.43z"></path></clipPath><clipPath clipPathUnits="userSpaceOnUse" id="cp7"><path d="m431.01 44.05q-0.01-3.6 0.38-7.07 0.4-3.43 1.76-6.1 1.37-2.65 3.93-4.29 2.6-1.63 6.95-1.64 4.45 0.01 7.04 1.64 2.55 1.64 3.87 4.29c0.91 1.79 1.47 3.81 1.73 6.1q0.39 3.47 0.38 7.07v82.01q0.01 3.61-0.38 7.1c-0.26 2.31-0.82 4.4-1.73 6.19q-1.32 2.72-3.87 4.34-2.59 1.63-7.04 1.64-4.35-0.01-6.95-1.64-2.56-1.62-3.93-4.34-1.36-2.7-1.76-6.19-0.39-3.49-0.38-7.1z"></path></clipPath><clipPath clipPathUnits="userSpaceOnUse" id="cp8"><path d="m489 179.65q-9.81-0.01-13.94-2.79c-2.75-1.85-4.1-4.6-4.1-8.18q0-2.67 0.7-4.46 0.75-1.8 2.03-2.93 1.3-1.1 2.96-1.59 1.7-0.48 3.58-0.47 1.29 0 2.4 0.09 1.11 0.09 1.91 0.09 1.62 0 3.11-1.94 1.53-1.93 2.93-4.84 1.42-2.94 2.88-6.27c0.96-2.23 1.96-4.32 2.93-6.19l-1.38-3.44c-1.67-4.19-3.4-8.56-5.25-13.19q-2.73-6.91-5.46-14c-1.79-4.72-3.58-9.41-5.31-14.1q-2.63-7.06-4.78-13.67-0.96-2.75-1.58-5.4c-0.44-1.79-0.65-3.52-0.65-5.25 0-1.64 0.33-3.2 1.03-4.63q1.03-2.16 2.85-3.7 1.79-1.55 4.16-2.44c1.56-0.61 3.26-0.9 5.02-0.9q2.41 0 4.43 1.02 2.02 1.05 3.6 2.85 1.6 1.81 2.79 4.1c0.82 1.56 1.5 3.17 2.08 4.9l11.5 36.23 11-36.23q0.78-2.42 1.97-4.81 1.22-2.41 2.84-4.25 1.63-1.85 3.7-2.99 2.07-1.18 4.54-1.18 2.5 0.01 4.78 0.94 2.29 0.96 3.96 2.61c1.12 1.15 2 2.47 2.67 4.02q0.97 2.3 0.97 4.96 0.01 2.59-0.64 5.13-0.62 2.51-1.59 5.02l-20.62 54.61q-1.79 4.63-3.9 9.65-2.1 5.03-4.6 9.83c-1.68 3.2-3.44 6.25-5.34 9.09q-2.81 4.31-6.02 7.57-3.17 3.26-6.74 5.19-3.56 1.94-7.42 1.94z"></path></clipPath><clipPath clipPathUnits="userSpaceOnUse" id="cp9"><path d="m581.8 129.28q-2.06 2.04-4.25 3.58c-1.44 1.03-3.02 1.56-4.66 1.56q-1.73 0-3.41-0.82-1.68-0.8-3.66-2.79c-1.47-1.5-2.53-2.82-3.08-4.02q-0.87-1.8-0.85-3.52-0.01-2.5 1.52-4.6c1.06-1.38 2.26-2.79 3.61-4.14l20.97-20.59-21.12-20.94c-1.32-1.29-2.49-2.7-3.49-4.14q-1.49-2.19-1.49-4.78 0-1.71 0.79-3.37 0.83-1.69 2.81-3.64c1.38-1.38 2.64-2.38 3.88-3.02q1.8-0.93 3.52-0.94 2.55 0 4.66 1.58c1.41 1.06 2.79 2.26 4.08 3.55l26.98 26.78c1.5 1.47 2.76 2.91 3.79 4.23q1.54 2.01 1.55 4.51 0.01 1.36-0.47 2.59-0.48 1.18-1.26 2.31-0.75 1.09-1.67 2.06-0.88 0.93-1.76 1.79z"></path></clipPath></defs><style>.a{fill:#2c6ffb}.b{fill:#2e6ffa}.c{fill:#306ff9}.d{fill:#326ff8}.e{fill:#346ff8}.f{fill:#356ff7}.g{fill:#376ef6}.h{fill:#396ef5}.i{fill:#3b6ef4}.j{fill:#3d6ef3}.k{fill:#3f6ef3}.l{fill:#416ef2}.m{fill:#436ef1}.n{fill:#456ef0}.o{fill:#466eef}.p{fill:#486eee}.q{fill:#4a6eee}.r{fill:#4c6ded}.s{fill:#4e6dec}.t{fill:#506deb}.u{fill:#526dea}.v{fill:#546de9}.w{fill:#556de9}.x{fill:#566de8}.y{fill:#5a6de6}.z{fill:#5b6de6}.A{fill:#5c6de6}.B{fill:#5d6de5}.C{fill:#5e6de5}.D{fill:#5f6ce4}.E{fill:#606ce4}.F{fill:#616ce3}.G{fill:#626ce3}.H{fill:#636ce3}.I{fill:#646ce2}.J{fill:#656ce2}.K{fill:#666ce1}.L{fill:#676ce1}.M{fill:#686ce0}.N{fill:#696ce0}.O{fill:#6a6ce0}.P{fill:#6b6cdf}.Q{fill:#6c6cdf}.R{fill:#6d6cde}.S{fill:#6e6cde}.T{fill:#6e6cdd}.U{fill:#6f6cdd}.V{fill:#716cdc}.W{fill:#726cdc}.X{fill:#736bdb}.Y{fill:#746bdb}.Z{fill:#756bdb}.a0{fill:#756bda}.a1{fill:#766bda}.a2{fill:#776bda}.a3{fill:#786bd9}.a4{fill:#796bd9}.a5{fill:#7a6bd8}.a6{fill:#7b6bd8}.a7{fill:#7c6bd7}.a8{fill:#7d6bd7}.a9{fill:#7e6bd7}.aa{fill:#7e6ad6}.ab{fill:#7f6ad6}.ac{fill:#8069d5}.ad{fill:#8169d5}.ae{fill:#8168d4}.af{fill:#8268d4}.ag{fill:#8368d4}.ah{fill:#8368d3}.ai{fill:#8367d3}.aj{fill:#8467d3}.ak{fill:#8766d1}.al{fill:#8765d1}.am{fill:#8865d1}.an{fill:#8865d0}.ao{fill:#8964d0}.ap{fill:#8a64cf}.aq{fill:#8a63cf}.ar{fill:#8b63cf}.as{fill:#8c63ce}.at{fill:#8c62ce}.au{fill:#8d62ce}.av{fill:#8d62cd}.aw{fill:#8e62cd}.ax{fill:#8e61cd}.ay{fill:#8f61cd}.az{fill:#8f61cc}.aA{fill:#9061cc}.aB{fill:#9060cc}.aC{fill:#9160cb}.aD{fill:#925fcb}.aE{fill:#925fca}.aF{fill:#935fca}.aG{fill:#945eca}.aH{fill:#965dc8}.aI{fill:#975cc8}.aJ{fill:#985cc7}.aK{fill:#995bc7}.aL{fill:#995bc6}.aM{fill:#9a5bc6}.aN{fill:#9a5ac6}.aO{fill:#9b5ac5}.aP{fill:#9c5ac5}.aQ{fill:#9c59c4}.aR{fill:#9d59c4}.aS{fill:#9e59c4}.aT{fill:#9e58c4}.aU{fill:#9e58c3}.aV{fill:#9f58c3}.aW{fill:#a057c3}.aX{fill:#a057c2}.aY{fill:#a157c2}.aZ{fill:#a256c1}.b0{fill:#a356c1}.b1{fill:#a653bf}.b2{fill:#a752bf}.b3{fill:#a852be}.b4{fill:#a851be}.b5{fill:#a951be}.b6{fill:#a950be}.b7{fill:#aa50be}.b8{fill:#aa4fbd}.b9{fill:#ac4ebd}.ba{fill:#ad4dbc}.bb{fill:#ae4cbc}.bc{fill:#af4bbc}.bd{fill:#af4bbb}.be{fill:#b04abb}.bf{fill:#b14abb}.bg{fill:#b149bb}.bh{fill:#b149ba}.bi{fill:#b249ba}.bj{fill:#b248ba}.bk{fill:#b348ba}.bl{fill:#b347ba}.bm{fill:#b447ba}.bn{fill:#b447b9}.bo{fill:#b446b9}.bp{fill:#b546b9}.bq{fill:#b645b9}.br{fill:#b645b8}.bs{fill:#b744b8}.bt{fill:#b942b7}.bu{fill:#ba41b7}.bv{fill:#bb41b7}.bw{fill:#bb40b6}.bx{fill:#bc40b6}.by{fill:#bc3fb6}.bz{fill:#bd3fb6}.bA{fill:#bd3eb6}.bB{fill:#be3eb5}.bC{fill:#be3db5}.bD{fill:#bf3db5}.bE{fill:#c03cb5}.bF{fill:#c03cb4}.bG{fill:#c13bb4}</style><g clip-path="url(#cp1)"><g clip-path="url(#cp2)"><path class="a" d="m371.7-124.9h1.2v81.3h-1.2"></path><path class="b" d="m22.7 53.1h3.5v81.3h-3.5"></path><path class="c" d="m25 53.1h3.5v81.3h-3.5"></path><path class="d" d="m27.4 53.1h3.4v81.3h-3.4"></path><path class="e" d="m29.7 53.1h3.4v81.3h-3.4"></path><path class="f" d="m32 53.1h3.4v81.3h-3.4"></path><path class="g" d="m34.3 53.1h3.5v81.3h-3.5"></path><path class="h" d="m36.6 53.1h3.5v81.3h-3.5"></path><path class="i" d="m38.9 53.1h3.5v81.3h-3.5"></path><path class="j" d="m41.2 53.1h3.5v81.3h-3.5"></path><path class="k" d="m43.5 53.1h3.5v81.3h-3.5"></path><path class="l" d="m45.8 53.1h3.5v81.3h-3.5"></path><path class="m" d="m48.1 53.1h3.5v81.3h-3.5"></path><path class="n" d="m50.5 53.1h3.4v81.3h-3.4"></path><path class="o" d="m52.8 53.1h3.4v81.3h-3.4"></path><path class="p" d="m55.1 53.1h3.4v81.3h-3.4"></path><path class="q" d="m57.4 53.1h3.4v81.3h-3.4"></path><path class="r" d="m59.7 53.1h3.5v81.3h-3.5"></path><path class="s" d="m62 53.1h3.5v81.3h-3.5"></path><path class="t" d="m64.3 53.1h3.5v81.3h-3.5"></path><path class="u" d="m66.6 53.1h3.5v81.3h-3.5"></path><path class="v" d="m68.9 53.1h3.5v81.3h-3.5"></path><path class="w" d="m71.2 53.1h3.5v81.3h-3.5"></path><path class="x" d="m73.5 53.1h1.3v81.3h-1.3"></path></g><g clip-path="url(#cp3)"><path class="y" d="m87.4 25h3.5v120.3h-3.5"></path><path class="z" d="m89.7 25h3.5v120.3h-3.5"></path><path class="A" d="m92 25h3.5v120.3h-3.5"></path><path class="B" d="m94.3 25h3.5v120.3h-3.5m2.3-120.3h3.5v120.3h-3.5"></path><path class="C" d="m99 25h3.4v120.3h-3.4"></path><path class="D" d="m101.3 25h3.4v120.3h-3.4"></path><path class="E" d="m103.6 25h3.4v120.3h-3.4m2.3-120.3h3.4v120.3h-3.4"></path><path class="F" d="m108.2 25h3.5v120.3h-3.5"></path><path class="G" d="m110.5 25h3.5v120.3h-3.5"></path><path class="H" d="m112.8 25h3.5v120.3h-3.5"></path><path class="I" d="m115.1 25h3.5v120.3h-3.5m2.3-120.3h3.5v120.3h-3.5"></path><path class="J" d="m119.7 25h3.5v120.3h-3.5"></path><path class="K" d="m122 25h3.5v120.3h-3.5"></path><path class="L" d="m124.4 25h3.4v120.3h-3.4m2.3-120.3h3.4v120.3h-3.4"></path><path class="M" d="m129 25h3.4v120.3h-3.4"></path><path class="N" d="m131.3 25h3.4v120.3h-3.4"></path><path class="O" d="m133.6 25h3.5v120.3h-3.5"></path><path class="P" d="m135.9 25h3.5v120.3h-3.5m2.3-120.3h3.5v120.3h-3.5"></path><path class="Q" d="m140.5 25h3.5v120.3h-3.5"></path><path class="R" d="m142.8 25h3.5v120.3h-3.5"></path><path class="S" d="m145.1 25h3.5v120.3h-3.5"></path><path class="T" d="m147.4 25h3.5v120.3h-3.5"></path><path class="U" d="m149.8 25h1.1v120.3h-1.1"></path></g><g clip-path="url(#cp4)"><path class="V" d="m159.9 58.7h0.3v87.3h-0.3"></path><path class="W" d="m159 58.7h3.5v87.3h-3.5"></path><path class="X" d="m161.3 58.7h3.5v87.3h-3.5"></path><path class="Y" d="m163.6 58.7h3.5v87.3h-3.5"></path><path class="Z" d="m165.9 58.7h3.5v87.3h-3.5"></path><path class="a0" d="m168.2 58.7h3.5v87.3h-3.5"></path><path class="a1" d="m170.5 58.7h3.5v87.3h-3.5"></path><path class="a2" d="m172.9 58.7h3.4v87.3h-3.4"></path><path class="a3" d="m175.2 58.7h3.4v87.3h-3.4m2.3-87.3h3.4v87.3h-3.4"></path><path class="a4" d="m179.8 58.7h3.4v87.3h-3.4"></path><path class="a5" d="m182.1 58.7h3.5v87.3h-3.5"></path><path class="a6" d="m184.4 58.7h3.5v87.3h-3.5m2.3-87.3h3.5v87.3h-3.5"></path><path class="a7" d="m189 58.7h3.5v87.3h-3.5"></path><path class="a8" d="m191.3 58.7h3.5v87.3h-3.5m2.3-87.3h3.5v87.3h-3.5"></path><path class="a9" d="m195.9 58.7h3.5v87.3h-3.5"></path><path class="aa" d="m198.3 58.7h3.4v87.3h-3.4"></path><path class="ab" d="m200.6 58.7h3.4v87.3h-3.4m2.3-87.3h3.4v87.3h-3.4m2.3-87.3h3.4v87.3h-3.4"></path><path class="ac" d="m207.5 58.7h3.5v87.3h-3.5m2.3-87.3h3.5v87.3h-3.5"></path><path class="ad" d="m212.1 58.7h3.5v87.3h-3.5m2.3-87.3h3.5v87.3h-3.5"></path><path class="ae" d="m216.7 58.7h3.5v87.3h-3.5"></path><path class="af" d="m219 58.7h3.5v87.3h-3.5m2.3-87.3h3.5v87.3h-3.5"></path><path class="ag" d="m223.7 58.7h3.4v87.3h-3.4"></path><path class="ah" d="m226 58.7h3.4v87.3h-3.4"></path><path class="ai" d="m228.3 58.7h3.4v87.3h-3.4"></path><path class="aj" d="m230.6 58.7h1.1v87.3h-1.1"></path></g><g clip-path="url(#cp5)"><path class="ak" d="m249.5 59.4h0.7v85.9h-0.7"></path><path class="al" d="m249.1 59.4h3.4v85.9h-3.4m2.3-85.9h3.4v85.9h-3.4"></path><path class="am" d="m253.7 59.4h3.4v85.9h-3.4"></path><path class="an" d="m256 59.4h3.5v85.9h-3.5"></path><path class="ao" d="m258.3 59.4h3.5v85.9h-3.5m2.3-85.9h3.5v85.9h-3.5m2.3-85.9h3.5v85.9h-3.5"></path><path class="ap" d="m265.2 59.4h3.5v85.9h-3.5"></path><path class="aq" d="m267.5 59.4h3.5v85.9h-3.5"></path><path class="ar" d="m269.8 59.4h3.5v85.9h-3.5m2.4-85.9h3.4v85.9h-3.4"></path><path class="as" d="m274.5 59.4h3.4v85.9h-3.4m2.3-85.9h3.4v85.9h-3.4"></path><path class="at" d="m279.1 59.4h3.4v85.9h-3.4"></path><path class="au" d="m281.4 59.4h3.5v85.9h-3.5"></path><path class="av" d="m283.7 59.4h3.5v85.9h-3.5"></path><path class="aw" d="m286 59.4h3.5v85.9h-3.5"></path><path class="ax" d="m288.3 59.4h3.5v85.9h-3.5m2.3-85.9h3.5v85.9h-3.5"></path><path class="ay" d="m292.9 59.4h3.5v85.9h-3.5"></path><path class="az" d="m295.3 59.4h3.4v85.9h-3.4"></path><path class="aA" d="m297.6 59.4h3.4v85.9h-3.4"></path><path class="aB" d="m299.9 59.4h3.4v85.9h-3.4m2.3-85.9h3.4v85.9h-3.4"></path><path class="aC" d="m304.5 59.4h3.5v85.9h-3.5m2.3-85.9h3.5v85.9h-3.5"></path><path class="aD" d="m309.1 59.4h3.5v85.9h-3.5m2.3-85.9h3.5v85.9h-3.5"></path><path class="aE" d="m313.7 59.4h3.5v85.9h-3.5"></path><path class="aF" d="m316 59.4h3.5v85.9h-3.5m2.3-85.9h3.5v85.9h-3.5"></path><path class="aG" d="m320.7 59.4h0.4v85.9h-0.4"></path></g><g clip-path="url(#cp6)"><path class="aH" d="m336.8 25h3.5v120.3h-3.5"></path><path class="aI" d="m339.1 25h3.5v120.3h-3.5m2.3-120.3h3.5v120.3h-3.5"></path><path class="aJ" d="m343.7 25h3.5v120.3h-3.5m2.4-120.3h3.4v120.3h-3.4m2.3-120.3h3.4v120.3h-3.4"></path><path class="aK" d="m350.7 25h3.4v120.3h-3.4"></path><path class="aL" d="m353 25h3.5v120.3h-3.5"></path><path class="aM" d="m355.3 25h3.5v120.3h-3.5m2.3-120.3h3.5v120.3h-3.5"></path><path class="aN" d="m359.9 25h3.5v120.3h-3.5"></path><path class="aO" d="m362.2 25h3.5v120.3h-3.5m2.3-120.3h3.5v120.3h-3.5"></path><path class="aP" d="m366.8 25h3.5v120.3h-3.5m2.4-120.3h3.4v120.3h-3.4"></path><path class="aQ" d="m371.5 25h3.4v120.3h-3.4"></path><path class="aR" d="m373.8 25h3.4v120.3h-3.4m2.3-120.3h3.4v120.3h-3.4"></path><path class="aS" d="m378.4 25h3.5v120.3h-3.5"></path><path class="aT" d="m380.7 25h3.5v120.3h-3.5"></path><path class="aU" d="m383 25h3.5v120.3h-3.5"></path><path class="aV" d="m385.3 25h3.5v120.3h-3.5m2.3-120.3h3.5v120.3h-3.5"></path><path class="aW" d="m389.9 25h3.5v120.3h-3.5"></path><path class="aX" d="m392.2 25h3.5v120.3h-3.5m2.4-120.3h3.4v120.3h-3.4"></path><path class="aY" d="m396.9 25h3.4v120.3h-3.4m2.3-120.3h3.4v120.3h-3.4"></path><path class="aZ" d="m401.5 25h3.4v120.3h-3.4m2.3-120.3h3.5v120.3h-3.5m2.3-120.3h3.5v120.3h-3.5"></path><path class="b0" d="m408.4 25h1v120.3h-1"></path></g><g clip-path="url(#cp7)"><path class="b1" d="m429.2 25h3.5v120.3h-3.5m2.3-120.3h3.5v120.3h-3.5"></path><path class="b2" d="m433.8 25h3.5v120.3h-3.5m2.3-120.3h3.5v120.3h-3.5m2.3-120.3h3.5v120.3h-3.5"></path><path class="b3" d="m440.7 25h3.5v120.3h-3.5"></path><path class="b4" d="m443.1 25h3.4v120.3h-3.4"></path><path class="b5" d="m445.4 25h3.4v120.3h-3.4m2.3-120.3h3.4v120.3h-3.4"></path><path class="b6" d="m450 25h3.4v120.3h-3.4"></path><path class="b7" d="m452.3 25h3.5v120.3h-3.5m2.3-120.3h3.5v120.3h-3.5"></path><path class="b8" d="m456.9 25h0.2v120.3h-0.2"></path></g><g clip-path="url(#cp8)"><path fill-rule="evenodd" class="b9" d="m470.8 59.1h0.2v120.5h-0.2m3.4-120.5v120.5h-2.3v-120.5z"></path><path class="ba" d="m473.1 59.1h3.4v120.5h-3.4m2.3-120.5h3.4v120.5h-3.4m2.3-120.5h3.5v120.5h-3.5"></path><path class="bb" d="m480 59.1h3.5v120.5h-3.5m2.3-120.5h3.5v120.5h-3.5m2.3-120.5h3.5v120.5h-3.5"></path><path class="bc" d="m486.9 59.1h3.5v120.5h-3.5"></path><path class="bd" d="m489.2 59.1h3.5v120.5h-3.5m2.4-120.5h3.4v120.5h-3.4"></path><path class="be" d="m493.9 59.1h3.4v120.5h-3.4m2.3-120.5h3.4v120.5h-3.4m2.3-120.5h3.4v120.5h-3.4"></path><path class="bf" d="m500.8 59.1h3.5v120.5h-3.5"></path><path class="bg" d="m503.1 59.1h3.5v120.5h-3.5"></path><path class="bh" d="m505.4 59.1h3.5v120.5h-3.5"></path><path class="bi" d="m507.7 59.1h3.5v120.5h-3.5"></path><path class="bj" d="m510 59.1h3.5v120.5h-3.5"></path><path class="bk" d="m512.3 59.1h3.5v120.5h-3.5m2.3-120.5h3.5v120.5h-3.5"></path><path class="bl" d="m517 59.1h3.4v120.5h-3.4"></path><path class="bm" d="m519.3 59.1h3.4v120.5h-3.4"></path><path class="bn" d="m521.6 59.1h3.4v120.5h-3.4"></path><path class="bo" d="m523.9 59.1h3.4v120.5h-3.4"></path><path class="bp" d="m526.2 59.1h3.5v120.5h-3.5m2.3-120.5h3.5v120.5h-3.5m2.3-120.5h3.5v120.5h-3.5"></path><path class="bq" d="m533.1 59.1h3.5v120.5h-3.5m2.3-120.5h3.5v120.5h-3.5"></path><path class="br" d="m537.7 59.1h3.5v120.5h-3.5"></path><path class="bs" d="m540 59.1h3.5v120.5h-3.5m2.4-120.5h3.4v120.5h-3.4m2.3-120.5h1.2v120.5h-1.2"></path></g><g clip-path="url(#cp9)"><path class="bt" d="m561.9 53.1h0.1v81.3h-0.1"></path><path class="bu" d="m560.8 53.1h3.5v81.3h-3.5m2.3-81.3h3.5v81.3h-3.5m2.4-81.3h3.4v81.3h-3.4"></path><path class="bv" d="m567.8 53.1h3.4v81.3h-3.4"></path><path class="bw" d="m570.1 53.1h3.4v81.3h-3.4m2.3-81.3h3.4v81.3h-3.4"></path><path class="bx" d="m574.7 53.1h3.5v81.3h-3.5"></path><path class="by" d="m577 53.1h3.5v81.3h-3.5"></path><path class="bz" d="m579.3 53.1h3.5v81.3h-3.5m2.3-81.3h3.5v81.3h-3.5"></path><path class="bA" d="m583.9 53.1h3.5v81.3h-3.5"></path><path class="bB" d="m586.2 53.1h3.5v81.3h-3.5m2.3-81.3h3.5v81.3h-3.5"></path><path class="bC" d="m590.9 53.1h3.4v81.3h-3.4"></path><path class="bD" d="m593.2 53.1h3.4v81.3h-3.4m2.3-81.3h3.4v81.3h-3.4m2.3-81.3h3.4v81.3h-3.4"></path><path class="bE" d="m600.1 53.1h3.5v81.3h-3.5"></path><path class="bF" d="m602.4 53.1h3.5v81.3h-3.5m2.3-81.3h3.5v81.3h-3.5"></path><path class="bG" d="m607 53.1h3.5v81.3h-3.5m2.3-81.3h4.7v81.3h-4.7"></path></g></g></svg>